<svg width="512" height="512" viewBox="0 0 512 512" xmlns="http://www.w3.org/2000/svg">
  <defs>
    <linearGradient id="bg" x1="0%" y1="0%" x2="100%" y2="100%">
      <stop offset="0%" stop-color="#4C6FFF"/>
      <stop offset="100%" stop-color="#8B5CF6"/>
    </linearGradient>
  </defs>
  <rect width="512" height="512" fill="url(#bg)"/>

  <!-- content scaled ~70% and centered for maskable safe zone -->
  <g transform="translate(76.8,76.8) scale(0.7)">
    <g fill="#ffffff">
      <rect x="226" y="120" width="60" height="132" rx="30"/>
      <rect x="214" y="150" width="8" height="70" rx="4" opacity="0.9"/>
      <rect x="290" y="150" width="8" height="70" rx="4" opacity="0.9"/>
      <path d="M186 232 a70 70 0 0 0 140 0" stroke="#ffffff" stroke-width="16" fill="none" stroke-linecap="round"/>
      <rect x="248" y="300" width="16" height="56" rx="8"/>
      <rect x="206" y="350" width="100" height="16" rx="8"/>
    </g>
    <g fill="#ffffff">
      <circle cx="352" cy="368" r="20"/>
      <rect x="368" y="300" width="12" height="72" rx="6"/>
      <path d="M368 300 L406 288 L406 308 L368 320 Z"/>
    </g>
  </g>
</svg>
